<svg viewBox="0 0 24 25" fill="currentColor" xmlns="http://www.w3.org/2000/svg">
<path d="M8 14.5C7.71667 14.5 7.479 14.404 7.287 14.212C7.09567 14.0207 7 13.7833 7 13.5C7 13.2167 7.09567 12.979 7.287 12.787C7.479 12.5957 7.71667 12.5 8 12.5C8.28333 12.5 8.521 12.5957 8.713 12.787C8.90433 12.979 9 13.2167 9 13.5C9 13.7833 8.90433 14.0207 8.713 14.212C8.521 14.404 8.28333 14.5 8 14.5ZM12 14.5C11.7167 14.5 11.4793 14.404 11.288 14.212C11.096 14.0207 11 13.7833 11 13.5C11 13.2167 11.096 12.979 11.288 12.787C11.4793 12.5957 11.7167 12.5 12 12.5C12.2833 12.5 12.521 12.5957 12.713 12.787C12.9043 12.979 13 13.2167 13 13.5C13 13.7833 12.9043 14.0207 12.713 14.212C12.521 14.404 12.2833 14.5 12 14.5ZM16 14.5C15.7167 14.5 15.4793 14.404 15.288 14.212C15.096 14.0207 15 13.7833 15 13.5C15 13.2167 15.096 12.979 15.288 12.787C15.4793 12.5957 15.7167 12.5 16 12.5C16.2833 12.5 16.5207 12.5957 16.712 12.787C16.904 12.979 17 13.2167 17 13.5C17 13.7833 16.904 14.0207 16.712 14.212C16.5207 14.404 16.2833 14.5 16 14.5ZM5 22.5C4.45 22.5 3.979 22.3043 3.587 21.913C3.19567 21.521 3 21.05 3 20.5V6.5C3 5.95 3.19567 5.47933 3.587 5.088C3.979 4.696 4.45 4.5 5 4.5H6V2.5H8V4.5H16V2.5H18V4.5H19C19.55 4.5 20.021 4.696 20.413 5.088C20.8043 5.47933 21 5.95 21 6.5V20.5C21 21.05 20.8043 21.521 20.413 21.913C20.021 22.3043 19.55 22.5 19 22.5H5ZM5 20.5H19V10.5H5V20.5Z" fill="currentColor"/>
</svg>
