<svg  viewBox="0 0 24 25" fill="currentColor" xmlns="http://www.w3.org/2000/svg">
<g clip-path="url(#clip0_268_44)">
<path d="M22 10.5L21.375 9.125L20 8.5L21.375 7.875L22 6.5L22.625 7.875L24 8.5L22.625 9.125L22 10.5ZM19 6.5L18.05 4.45L16 3.5L18.05 2.55L19 0.5L19.95 2.55L22 3.5L19.95 4.45L19 6.5ZM9 22.5C8.45 22.5 7.97933 22.3043 7.588 21.913C7.196 21.521 7 21.05 7 20.5H11C11 21.05 10.8043 21.521 10.413 21.913C10.021 22.3043 9.55 22.5 9 22.5ZM5 19.5V17.5H13V19.5H5ZM5.25 16.5C4.1 15.8167 3.18767 14.9 2.513 13.75C1.83767 12.6 1.5 11.35 1.5 10C1.5 7.91667 2.22933 6.146 3.688 4.688C5.146 3.22933 6.91667 2.5 9 2.5C11.0833 2.5 12.854 3.22933 14.312 4.688C15.7707 6.146 16.5 7.91667 16.5 10C16.5 11.35 16.1627 12.6 15.488 13.75C14.8127 14.9 13.9 15.8167 12.75 16.5H5.25ZM5.85 14.5H12.15C12.9 13.9667 13.479 13.3083 13.887 12.525C14.2957 11.7417 14.5 10.9 14.5 10C14.5 8.46667 13.9667 7.16667 12.9 6.1C11.8333 5.03333 10.5333 4.5 9 4.5C7.46667 4.5 6.16667 5.03333 5.1 6.1C4.03333 7.16667 3.5 8.46667 3.5 10C3.5 10.9 3.70433 11.7417 4.113 12.525C4.521 13.3083 5.1 13.9667 5.85 14.5Z" fill="currentColor"/>
</g>
<defs>
<clipPath id="clip0_268_44">
<rect width="24" height="24" fill="currentColor" transform="translate(0 0.5)"/>
</clipPath>
</defs>
</svg>
