<svg width="143" height="21" viewBox="0 0 143 21" fill="none" xmlns="http://www.w3.org/2000/svg">
<g clip-path="url(#clip0_4_309)">
<path d="M21.7655 9.14053V7.83334H24.5629V5.51962C24.5629 5.11003 24.6936 4.77016 24.955 4.50001C25.2165 4.22986 25.5564 4.09478 25.9747 4.09478H29.5564V5.41504H26.4845C26.1533 5.41504 25.9877 5.59805 25.9877 5.96406V7.83334H29.7786V9.14053H25.9877V16.9052H24.5629V9.14053H21.7655ZM40.1184 13.3497L41.5433 13.6895C41.4474 14.1863 41.2818 14.6481 41.0465 15.0752C40.8025 15.5022 40.4975 15.8725 40.1315 16.1863C39.7655 16.4913 39.3385 16.7309 38.8505 16.9052C38.3625 17.0795 37.8221 17.1667 37.2296 17.1667C36.5934 17.1667 35.9921 17.0621 35.4256 16.8529C34.8592 16.6438 34.3625 16.3431 33.9354 15.951C33.5084 15.5501 33.1686 15.0621 32.9158 14.4869C32.6631 13.9118 32.5367 13.2538 32.5367 12.5131V12.2908C32.5367 11.5588 32.6631 10.9009 32.9158 10.317C33.1686 9.73312 33.5084 9.24075 33.9354 8.83987C34.3625 8.43029 34.8592 8.11656 35.4256 7.8987C35.9921 7.68083 36.5934 7.5719 37.2296 7.5719C37.8047 7.5719 38.3363 7.65905 38.8243 7.83334C39.3123 7.99892 39.7394 8.23857 40.1054 8.55229C40.4801 8.86602 40.7851 9.23639 41.0204 9.6634C41.2644 10.0904 41.4256 10.5523 41.5041 11.049L40.0792 11.3758C40.0444 11.0621 39.9572 10.7527 39.8178 10.4477C39.6784 10.1514 39.4866 9.88998 39.2426 9.6634C39.0073 9.43682 38.7197 9.25817 38.3799 9.12745C38.04 8.99674 37.6435 8.93138 37.1903 8.93138C36.7546 8.93138 36.3407 9.01417 35.9485 9.17974C35.5651 9.33661 35.2296 9.56754 34.942 9.87255C34.6457 10.1688 34.4147 10.5261 34.2492 10.9444C34.0836 11.354 34.0008 11.8028 34.0008 12.2908V12.5131C34.0008 13.0272 34.0836 13.4891 34.2492 13.8987C34.4147 14.3083 34.6457 14.6525 34.942 14.9314C35.2296 15.2102 35.5694 15.4237 35.9616 15.5719C36.3537 15.7288 36.7764 15.8072 37.2296 15.8072C37.6827 15.8072 38.0749 15.7375 38.406 15.598C38.7459 15.4586 39.0335 15.2756 39.2688 15.049C39.5041 14.8224 39.6914 14.561 39.8309 14.2647C39.9703 13.9771 40.0662 13.6721 40.1184 13.3497ZM52.8243 12.2516V12.4739C52.8243 13.232 52.698 13.8987 52.4452 14.4739C52.1925 15.0577 51.8614 15.5501 51.4518 15.951C51.0335 16.3431 50.5455 16.6438 49.9877 16.8529C49.4387 17.0621 48.8635 17.1667 48.2622 17.1667C47.6522 17.1667 47.0727 17.0621 46.5237 16.8529C45.9746 16.6438 45.491 16.3431 45.0727 15.951C44.6631 15.5501 44.3319 15.0577 44.0792 14.4739C43.8265 13.8987 43.7001 13.232 43.7001 12.4739V12.2516C43.7001 11.5109 43.8265 10.8529 44.0792 10.2778C44.3319 9.6939 44.6675 9.20153 45.0858 8.80066C45.5041 8.39979 45.9877 8.09478 46.5367 7.88563C47.0858 7.67648 47.6609 7.5719 48.2622 7.5719C48.8635 7.5719 49.4387 7.67648 49.9877 7.88563C50.5367 8.09478 51.0204 8.39979 51.4387 8.80066C51.857 9.20153 52.1925 9.6939 52.4452 10.2778C52.698 10.8529 52.8243 11.5109 52.8243 12.2516ZM48.2622 15.8072C48.698 15.8072 49.1032 15.7288 49.4779 15.5719C49.8526 15.4237 50.1794 15.2015 50.4583 14.9052C50.7372 14.6176 50.955 14.2691 51.1119 13.8595C51.2775 13.4499 51.3603 12.988 51.3603 12.4739V12.2516C51.3603 11.7636 51.2775 11.3148 51.1119 10.9052C50.955 10.5044 50.7372 10.1558 50.4583 9.85948C50.1794 9.56318 49.8483 9.33661 49.4648 9.17974C49.0901 9.01417 48.6892 8.93138 48.2622 8.93138C47.8352 8.93138 47.4343 9.01417 47.0596 9.17974C46.6762 9.33661 46.345 9.56318 46.0662 9.85948C45.7873 10.1558 45.5694 10.5044 45.4126 10.9052C45.247 11.3148 45.1642 11.7636 45.1642 12.2516V12.4739C45.1642 12.988 45.247 13.4499 45.4126 13.8595C45.5694 14.2691 45.7873 14.6176 46.0662 14.9052C46.345 15.2015 46.6718 15.4237 47.0465 15.5719C47.4213 15.7288 47.8265 15.8072 48.2622 15.8072ZM56.8766 12.1863V16.9052H55.4518V7.83334H56.8766V9.36275H57.0988C57.6653 8.16885 58.6413 7.5719 60.0269 7.5719C61.0814 7.5719 61.918 7.8987 62.5367 8.55229C63.1555 9.20589 63.4648 10.1863 63.4648 11.4935V16.9052H62.04V11.781C62.04 10.8312 61.8265 10.1166 61.3995 9.63726C60.9725 9.16667 60.3929 8.93138 59.6609 8.93138C58.7982 8.93138 58.1184 9.22332 57.6217 9.80719C57.125 10.3998 56.8766 11.1928 56.8766 12.1863ZM66.3407 9.14053V7.83334H69.2034V4.09478H70.6282V7.83334H74.1446V9.14053H70.6282V15.0359C70.6282 15.402 70.7938 15.585 71.125 15.585H73.7001V16.9052H70.6021C70.1925 16.9052 69.857 16.7701 69.5956 16.5C69.3341 16.2298 69.2034 15.89 69.2034 15.4804V9.14053H66.3407ZM77.3472 9.14053V7.83334H80.6413V9.03595H80.8505C81.0858 8.53922 81.4169 8.16885 81.8439 7.92484C82.2709 7.68955 82.759 7.5719 83.308 7.5719C84.223 7.5719 84.9594 7.87255 85.5171 8.47386C86.0836 9.06645 86.3842 9.93791 86.4191 11.0882L84.9158 11.3105C84.9158 10.4651 84.7154 9.85512 84.3145 9.4804C83.9136 9.11438 83.4213 8.93138 82.8374 8.93138C82.4539 8.93138 82.1271 9.00109 81.857 9.14053C81.5781 9.28867 81.3472 9.49347 81.1642 9.75491C80.9812 10.0076 80.8461 10.3039 80.759 10.6438C80.6805 10.9837 80.6413 11.3497 80.6413 11.7418V15.585H82.942V16.9052H77.125V15.585H79.2034V9.14053H77.3472ZM97.4126 12.8007H90.0923C90.1359 13.707 90.4191 14.4346 90.942 14.9837C91.4648 15.5327 92.1969 15.8072 93.138 15.8072C93.5651 15.8072 93.9354 15.7593 94.2491 15.6634C94.5716 15.5675 94.8417 15.4325 95.0596 15.2582C95.2862 15.0839 95.4692 14.8834 95.6086 14.6569C95.7568 14.439 95.8701 14.1993 95.9485 13.9379L97.308 14.3039C97.0552 15.1492 96.5803 15.8377 95.8831 16.3693C95.1947 16.9009 94.2666 17.1667 93.0988 17.1667C92.4539 17.1667 91.857 17.0534 91.308 16.8268C90.7677 16.6002 90.3014 16.2778 89.9093 15.8595C89.5258 15.4499 89.2208 14.9575 88.9943 14.3824C88.7764 13.8072 88.6675 13.171 88.6675 12.4739V12.0425C88.6675 11.4063 88.7807 10.8137 89.0073 10.2647C89.2339 9.71569 89.5476 9.24075 89.9485 8.83987C90.3494 8.44772 90.8243 8.13835 91.3733 7.91177C91.9136 7.68519 92.5019 7.5719 93.138 7.5719C93.8788 7.5719 94.5193 7.71133 95.0596 7.9902C95.6086 8.26035 96.0574 8.59587 96.406 8.99674C96.7546 9.39761 97.0073 9.83769 97.1642 10.317C97.3298 10.7963 97.4126 11.2364 97.4126 11.6373V12.8007ZM93.138 8.93138C92.7372 8.93138 92.3624 8.99238 92.0139 9.11438C91.6653 9.2451 91.3603 9.42811 91.0988 9.6634C90.8374 9.88998 90.6239 10.1601 90.4583 10.4739C90.2927 10.7876 90.1838 11.1275 90.1315 11.4935H95.9877C95.9616 11.1013 95.8657 10.744 95.7001 10.4216C95.5433 10.1078 95.3298 9.84205 95.0596 9.62419C94.7982 9.40632 94.5019 9.23639 94.1707 9.11438C93.8308 8.99238 93.4866 8.93138 93.138 8.93138ZM99.7393 9.14053V7.83334H103.033V9.03595H103.256C103.491 8.53922 103.822 8.16885 104.249 7.92484C104.676 7.68955 105.164 7.5719 105.713 7.5719C106.628 7.5719 107.365 7.87255 107.922 8.47386C108.48 9.06645 108.781 9.93791 108.824 11.0882L107.321 11.3105C107.321 10.4651 107.121 9.85512 106.72 9.4804C106.31 9.11438 105.813 8.93138 105.23 8.93138C104.855 8.93138 104.528 9.00109 104.249 9.14053C103.979 9.28867 103.752 9.49347 103.569 9.75491C103.386 10.0076 103.251 10.3039 103.164 10.6438C103.077 10.9837 103.033 11.3497 103.033 11.7418V15.585H105.347V16.9052H99.5171V15.585H101.609V9.14053H99.7393ZM118.04 15.4804V15.3627H117.818C117.53 15.9728 117.125 16.4259 116.602 16.7222C116.088 17.0185 115.543 17.1667 114.968 17.1667C114.367 17.1667 113.813 17.0621 113.308 16.8529C112.794 16.6525 112.345 16.3562 111.962 15.964C111.578 15.5632 111.273 15.0795 111.047 14.5131C110.829 13.9379 110.72 13.2712 110.72 12.5131V12.2255C110.72 11.476 110.829 10.8137 111.047 10.2386C111.273 9.67212 111.578 9.18846 111.962 8.78759C112.345 8.39543 112.794 8.09478 113.308 7.88563C113.813 7.67648 114.354 7.5719 114.929 7.5719C115.556 7.5719 116.123 7.71133 116.628 7.9902C117.134 8.26035 117.53 8.68301 117.818 9.25817H118.04V7.83334H119.465V15.0359C119.465 15.402 119.63 15.585 119.962 15.585H120.419V16.9052H119.452C119.033 16.9052 118.694 16.7701 118.432 16.5C118.171 16.2298 118.04 15.89 118.04 15.4804ZM115.112 15.8072C115.539 15.8072 115.935 15.7288 116.301 15.5719C116.659 15.415 116.964 15.1885 117.216 14.8922C117.478 14.5959 117.678 14.2429 117.818 13.8333C117.966 13.4325 118.04 12.9793 118.04 12.4739V12.2516C118.04 11.7636 117.966 11.3148 117.818 10.9052C117.678 10.5044 117.474 10.1558 117.203 9.85948C116.942 9.56318 116.633 9.33661 116.275 9.17974C115.918 9.01417 115.53 8.93138 115.112 8.93138C114.685 8.93138 114.297 9.00981 113.948 9.16667C113.591 9.32353 113.282 9.54576 113.02 9.83334C112.759 10.1209 112.554 10.4695 112.406 10.8791C112.258 11.2887 112.184 11.7375 112.184 12.2255V12.5131C112.184 13.5501 112.454 14.3562 112.994 14.9314C113.543 15.5152 114.249 15.8072 115.112 15.8072ZM124.537 10.1732C124.537 10.6089 124.724 10.9444 125.099 11.1797C125.474 11.4063 126.153 11.5588 127.138 11.6373C128.201 11.7244 129.007 11.9771 129.556 12.3954C130.114 12.8137 130.393 13.4281 130.393 14.2386V14.3431C130.393 14.7789 130.306 15.171 130.132 15.5196C129.957 15.8682 129.713 16.1645 129.399 16.4085C129.086 16.6525 128.707 16.8399 128.262 16.9706C127.818 17.1013 127.334 17.1667 126.811 17.1667C126.105 17.1667 125.495 17.0708 124.981 16.8791C124.476 16.6874 124.057 16.4346 123.726 16.1209C123.386 15.8159 123.134 15.463 122.968 15.0621C122.794 14.6699 122.694 14.2734 122.667 13.8725L124.027 13.5327C124.088 14.2298 124.358 14.7876 124.837 15.2059C125.308 15.6329 125.94 15.8464 126.733 15.8464C127.404 15.8464 127.944 15.7157 128.354 15.4542C128.763 15.1928 128.968 14.8224 128.968 14.3431C128.968 13.829 128.768 13.463 128.367 13.2451C127.966 13.0272 127.312 12.8878 126.406 12.8268C125.36 12.7484 124.554 12.5044 123.988 12.0948C123.43 11.6765 123.151 11.0708 123.151 10.2778V10.1732C123.151 9.74619 123.243 9.37146 123.426 9.04902C123.609 8.72658 123.853 8.45207 124.158 8.2255C124.471 8.00763 124.824 7.84641 125.216 7.74184C125.609 7.62855 126.018 7.5719 126.445 7.5719C127.038 7.5719 127.561 7.65469 128.014 7.82027C128.467 7.98584 128.846 8.19935 129.151 8.46079C129.456 8.72223 129.691 9.02288 129.857 9.36275C130.023 9.70262 130.127 10.0468 130.171 10.3954L128.824 10.7222C128.763 10.1383 128.528 9.68083 128.118 9.34968C127.709 9.01852 127.173 8.85295 126.511 8.85295C126.258 8.85295 126.014 8.87909 125.779 8.93138C125.535 8.99238 125.321 9.07517 125.138 9.17974C124.955 9.29303 124.811 9.43247 124.707 9.59804C124.593 9.76362 124.537 9.95534 124.537 10.1732ZM135.086 15.4804H142.223V16.9052H133.543V14.7091C133.543 14.1253 133.639 13.6155 133.831 13.1797C134.031 12.744 134.31 12.3736 134.667 12.0686C135.025 11.7549 135.46 11.4935 135.975 11.2843C136.489 11.0752 137.068 10.9009 137.713 10.7614C138.803 10.5174 139.587 10.1688 140.066 9.71569C140.545 9.26253 140.785 8.7048 140.785 8.04249V7.93791C140.785 7.60676 140.733 7.28432 140.628 6.97059C140.515 6.64816 140.345 6.36057 140.118 6.10785C139.883 5.85513 139.587 5.65033 139.23 5.49347C138.864 5.34532 138.432 5.27125 137.935 5.27125C136.994 5.27125 136.267 5.55447 135.752 6.12092C135.23 6.69609 134.968 7.45861 134.968 8.4085V9.21896H133.439V8.30393C133.439 7.72005 133.535 7.15796 133.726 6.61765C133.918 6.08606 134.206 5.61112 134.589 5.19282C134.964 4.77452 135.434 4.44336 136.001 4.19936C136.559 3.95535 137.203 3.83334 137.935 3.83334C138.676 3.83334 139.321 3.94663 139.87 4.17321C140.419 4.39979 140.877 4.70045 141.243 5.07517C141.609 5.4499 141.883 5.8682 142.066 6.33007C142.24 6.80066 142.328 7.27996 142.328 7.76798V8.10785C142.328 9.08388 142.023 9.91612 141.413 10.6046C140.803 11.293 139.826 11.781 138.484 12.0686C137.317 12.3301 136.458 12.6699 135.909 13.0882C135.36 13.5065 135.086 14.1209 135.086 14.9314V15.4804Z" fill="white"/>
<path d="M7.10837 13.8235L2.72095 11.4246V10.0951L7.10837 7.70592V9.27108L4.04799 10.7429L7.10837 12.27V13.8235ZM7.5144 14.8781L9.0993 6.55215H10.0218L8.41908 14.8781H7.5144ZM10.4273 13.8301V12.2751L13.4913 10.7595L10.4273 9.25986V7.71664L14.8191 10.1061V11.4246L10.4273 13.8301Z" fill="white"/>
<path d="M8.76978 20.7153L0.109497 15.7157V5.71521L8.76978 0.715332L17.4305 5.71545V15.715L8.76978 20.7153ZM0.988101 15.208L8.76978 19.7007L16.5519 15.208V6.22263L8.76978 1.72969L0.988101 6.22239V15.208Z" fill="white"/>
</g>
<defs>
<clipPath id="clip0_4_309">
<rect width="142.444" height="20" fill="white" transform="translate(0 0.5)"/>
</clipPath>
</defs>
</svg>
